# xmcd CD database file
#
# Track frame offsets:
#	150
#	20532
#	58587
#	80027
#	111465
#	134215
#	155042
#	180840
#	195652
#	215497
#	250325
#	274515
#	303967
#	317275
#
# Disc length: 4574 seconds
#
# Revision: 7
# Processed by: cddbd v1.5.2PL0 Copyright (c) Steve Scherf et al.
# Submitted via: CDex 1.51
#
DISCID=c611dc0e
DTITLE=Buddy Guy - Buddy's Baddest: The Best Of Buddy Guy
DYEAR=1998
DGENRE=Blues
TTITLE0=Damn Right, I've Got The Blues
TTITLE1=Five Long Years
TTITLE2=Mustang Sally
TTITLE3=Rememberin' Stevie
TTITLE4=She's A Superstar
TTITLE5=Feels Like Rain
TTITLE6=She's Nineteen Years Old
TTITLE7=I Smell Trouble
TTITLE8=Someone Else Is Steppin' In (Slippin' Out, Slippin In)
TTITLE9=My Time After Awhile (Live)
TTITLE10=Midnight Train (featuring Jonny Lang)
TTITLE11=Miss Ida B
TTITLE12=I Need Your Love So Bad
TTITLE13=Innocent Man
EXTD=YEAR: 1998
EXTT0=
EXTT1=
EXTT2=
EXTT3=
EXTT4=
EXTT5=
EXTT6=
EXTT7=
EXTT8=
EXTT9=
EXTT10=
EXTT11=
EXTT12=
EXTT13=
PLAYORDER=
